<?xml version="1.0" encoding="utf-8"?>
<!-- Generator: Adobe Illustrator 18.0.0, SVG Export Plug-In . SVG Version: 6.00 Build 0)  -->
<!DOCTYPE svg PUBLIC "-//W3C//DTD SVG 1.1//EN" "http://www.w3.org/Graphics/SVG/1.1/DTD/svg11.dtd">
<svg version="1.1" id="Слой_1" xmlns="http://www.w3.org/2000/svg" xmlns:xlink="http://www.w3.org/1999/xlink" x="0px" y="0px"
	 viewBox="0 0 60 79.03" enable-background="new 0 0 60 79.03" xml:space="preserve">
<path fill="#EE7F8F" d="M60,32.4h-0.02c0,0,0.02-1.14,0.02-1.37C60,14.09,46.57,0,30,0S0,14.26,0,31.21c0,0.23,0.01,1.19,0.02,1.19
	H0c0.01,0,0.02-0.56,0.02-0.49c0.07,2.66,0.48,4.89,1.17,7.34c5.93,26.97,28.86,39.78,28.86,39.78
	C48.14,67.6,55.33,51.33,58.17,41.02c1.07-2.99,1.7-5.55,1.81-8.9C59.99,31.88,60,32.4,60,32.4z"/>
<ellipse fill="#F9F5C0" cx="30.12" cy="31.66" rx="23.42" ry="24.15"/>
</svg>
