<?xml version="1.0" encoding="utf-8"?>
<!-- Generator: Adobe Illustrator 18.0.0, SVG Export Plug-In . SVG Version: 6.00 Build 0)  -->
<!DOCTYPE svg PUBLIC "-//W3C//DTD SVG 1.1//EN" "http://www.w3.org/Graphics/SVG/1.1/DTD/svg11.dtd">
<svg version="1.1" id="Слой_1" xmlns="http://www.w3.org/2000/svg" xmlns:xlink="http://www.w3.org/1999/xlink" x="0px" y="0px"
	 viewBox="0 0 80.07 128" enable-background="new 0 0 80.07 128" xml:space="preserve">
<path fill="#FFFCF3" d="M19.26,90.46l41.87,0.06c3.27,0,5.55,1.79,6.96,5.78l8.96,25.78c0,3.26-2.67,5.93-5.94,5.93H8.17
	c-3.27,0-5.94-2.67-5.94-5.93l9.42-25.97C13.03,92.79,14.29,90.46,19.26,90.46z"/>
<ellipse fill="#CECDCC" cx="46.34" cy="104.44" rx="11.5" ry="7"/>
<path fill="#EE7F8F" d="M76.1,55.93h-0.02c0.01,0,0.02-2.04,0.02-2.31c0-20.18-16.39-37.29-36.6-37.29S2.89,33.82,2.89,54
	c0,0.27,0.01,1.93,0.02,1.93H2.89c0.01,0,0.02-1.34,0.03-1.26c0.09,3.17,0.58,5.48,1.43,8.4c7.23,32.12,35.21,47.2,35.21,47.2
	c22.07-13.61,30.84-33.08,34.3-45.35c1.31-3.56,2.07-5.97,2.21-9.96C76.09,54.67,76.1,55.93,76.1,55.93z"/>
<ellipse fill="#F9F5C0" cx="39.41" cy="54.61" rx="26.72" ry="26.68"/>
<path fill="#4C7898" d="M40.1,0c0,0,31.53-0.54,39.78,23.45c0,0,2.36,9.21-9.65,12.74c-12.01,3.53-48.04,3.43-60.27,0
	C-2.26,32.76,0.2,23.02,0.2,23.02S5.67,0.43,40.1,0z"/>
<path fill="#62345A" d="M9.9,40.47c0,0,0,7.6,30.13,7.6s30.13-7.6,30.13-7.6v-2.68H9.9V40.47z"/>
<path fill="#C0E4F2" d="M9.9,29.67c0,0,2.25-6.13,30.13-6.13s30.13,6.13,30.13,6.13v9.63c0,0-16.62-1.38-30.13-1.38
	S9.9,39.29,9.9,39.29V29.67z"/>
<ellipse fill="#F9F5C0" cx="39.51" cy="11.95" rx="5.91" ry="7.27"/>
</svg>
