<?xml version="1.0" encoding="utf-8"?>
<!-- Generator: Adobe Illustrator 18.0.0, SVG Export Plug-In . SVG Version: 6.00 Build 0)  -->
<!DOCTYPE svg PUBLIC "-//W3C//DTD SVG 1.1//EN" "http://www.w3.org/Graphics/SVG/1.1/DTD/svg11.dtd">
<svg version="1.1" id="Слой_1" xmlns="http://www.w3.org/2000/svg" xmlns:xlink="http://www.w3.org/1999/xlink" x="0px" y="0px"
	 viewBox="0 0 26.91 37" enable-background="new 0 0 26.91 37" xml:space="preserve">
<path fill="#BC413D" d="M25.42,7.89c-0.52-3.7-3.08-6.66-6.68-7.39C16.9,0.12,13.67-0.01,13.67,0v34.47c0,0,0.22-0.05,0.41-0.13
	C24.03,30.11,25.47,23,26,17.32C26.27,14.47,25.83,10.84,25.42,7.89z"/>
<path fill="#E94944" d="M1.62,7.89c0.52-3.7,3.23-6.66,6.84-7.39C10.3,0.12,9.67-0.01,13.67,0v34.47c0,0-0.37-0.05-0.56-0.13
	C3.16,30.11,1.65,23,1.12,17.32C0.85,14.47,1.21,10.84,1.62,7.89z"/>
<ellipse fill="#F9F5C0" cx="13.37" cy="14.7" rx="4.64" ry="4.71"/>
<path fill="#FFFFFF" d="M13.47,6.55c0,0,4.81-0.08,6.07,3.64c0,0,0.36,1.43-1.47,1.98c-1.83,0.55-7.33,0.53-9.2,0
	C7,11.63,7.38,10.12,7.38,10.12S8.21,6.61,13.47,6.55z"/>
<path fill="#62345A" d="M8.86,13.02c0,0,0,2.1,4.6,2.1s4.6-2.1,4.6-2.1v-0.74h-9.2V13.02z"/>
<path fill="#62345A" d="M8.86,12.11c0,0,0.34-0.95,4.6-0.95s4.6,0.95,4.6,0.95v1.49c0,0-2.54-0.21-4.6-0.21s-4.6,0.21-4.6,0.21
	V12.11z"/>
<path fill="#FFFFFF" d="M16.03,21.15c-2.7,1.91-5.18,0-5.18,0c-2.54,0.78-2.43,2.74-2.43,2.74c0.06,0.71,0.15,1.28,0.27,1.73
	c1.35,0.8,2.97,1.27,4.7,1.27c1.77,0,3.41-0.48,4.78-1.32c0.09-0.46,0.15-1.01,0.18-1.64C18.46,21.73,16.03,21.15,16.03,21.15z"/>
</svg>
