<?xml version="1.0" encoding="utf-8"?>
<!-- Generator: Adobe Illustrator 18.0.0, SVG Export Plug-In . SVG Version: 6.00 Build 0)  -->
<!DOCTYPE svg PUBLIC "-//W3C//DTD SVG 1.1//EN" "http://www.w3.org/Graphics/SVG/1.1/DTD/svg11.dtd">
<svg version="1.1" id="Слой_1" xmlns="http://www.w3.org/2000/svg" xmlns:xlink="http://www.w3.org/1999/xlink" x="0px" y="0px"
	 viewBox="0 0 80.01 110" enable-background="new 0 0 80.01 110" xml:space="preserve">
<polygon fill="#FFFFFF" points="69.74,110.24 0,110.24 11.55,93.05 80.01,93.05 "/>
<ellipse transform="matrix(0.9999 -0.0151 0.0151 0.9999 -1.5086 0.7276)" fill="#9AC3E9" cx="47.48" cy="100.38" rx="11.38" ry="2.35"/>
<path display="none" fill="#E94944" d="M27.99,0.97c7.8-1.22,17.2-1.55,27.32,0.51C66.02,3.65,74.2,12.41,75.74,23.36
	c1.23,8.74,2.24,19.49,1.44,27.93c-1.58,16.8-6.12,37.83-35.71,50.38c-1.15,0.49-2.44,0.52-3.59,0.05
	C30.35,98.72,2.06,85.15,2.06,51.2c0,0-0.71-8.43,1.21-24.23C4.87,13.69,14.94,3.01,27.99,0.97z"/>
<path fill="#E94944" d="M75.56,23.69c-1.55-11-9.43-19.79-20.2-21.98C49.86,0.6,44,0.2,40,0.25C36,0.2,30.29,0.6,24.82,1.72
	C14.11,3.9,6.36,12.69,4.82,23.69C3.6,32.47,2.37,43.27,3.17,51.75c1.58,16.88,5.9,38,35.49,50.6c0.57,0.24,1.34,0.37,1.34,0.38
	c0-0.01,0.85-0.14,1.43-0.38c29.78-12.6,34.17-33.73,35.76-50.6C77.99,43.27,76.79,32.47,75.56,23.69z"/>
<path fill="#BC413D" d="M75.56,23.69c-1.55-11-9.43-19.79-20.2-21.98C49.86,0.6,44,0.2,40,0.25v102.49c0-0.01,0.85-0.14,1.43-0.38
	c29.78-12.6,34.17-33.73,35.76-50.6C77.99,43.27,76.8,32.47,75.56,23.69z"/>
<ellipse fill="#F9F5C0" cx="39.75" cy="43.96" rx="13.79" ry="14"/>
<path fill="#4C7898" d="M40.03,19.71c0,0,14.3-0.25,18.05,10.81c0,0,1.07,4.25-4.38,5.87c-5.45,1.63-21.79,1.58-27.34,0
	c-5.55-1.58-4.43-6.07-4.43-6.07S24.42,19.91,40.03,19.71z"/>
<path fill="#62345A" d="M26.33,38.58c0,0,0,4.3,13.67,4.3s13.67-4.3,13.67-4.3v-1.51H26.33V38.58z"/>
<path fill="#4C7898" d="M26.33,33.26c0,0,1.02-2.83,13.67-2.83s13.67,2.83,13.67,2.83v4.44c0,0-7.54-0.63-13.67-0.63
	S26.33,37.7,26.33,37.7V33.26z"/>
<ellipse fill="#F9F5C0" cx="39.77" cy="26.29" rx="2.68" ry="3.35"/>
<path fill="#4C7898" d="M47.64,60.13c-8.03,5.68-15.41,0-15.41,0c-7.54,2.33-7.22,8.16-7.22,8.16c0.17,2.11,0.45,3.8,0.81,5.15
	c4.03,2.39,8.83,3.78,13.99,3.78c5.25,0,10.14-1.44,14.21-3.91c0.27-1.37,0.43-2.99,0.52-4.87C54.87,61.88,47.64,60.13,47.64,60.13z
	"/>
</svg>
