<?xml version="1.0" encoding="utf-8"?>
<!-- Generator: Adobe Illustrator 18.0.0, SVG Export Plug-In . SVG Version: 6.00 Build 0)  -->
<!DOCTYPE svg PUBLIC "-//W3C//DTD SVG 1.1//EN" "http://www.w3.org/Graphics/SVG/1.1/DTD/svg11.dtd">
<svg version="1.1" id="Слой_1" xmlns="http://www.w3.org/2000/svg" xmlns:xlink="http://www.w3.org/1999/xlink" x="0px" y="0px"
	 viewBox="0 0 29.77 30" enable-background="new 0 0 29.77 30" xml:space="preserve">
<path fill="#FFFFFF" stroke="#62345A" stroke-miterlimit="10" d="M-95.73-90.16h-0.01c0-1,0.01-0.92,0.01-1.06
	c0-10.73-8.95-19.75-20-19.75s-20,9.18-20,19.91c0,0.14,0.01-0.09,0.01,0.91h-0.01c0,0,0.01-0.55,0.01-0.51
	c0.05,1.68,0.32,3,0.78,4.55c3.95,17.08,19.24,25.14,19.24,25.14c12.06-7.24,16.85-17.57,18.74-24.1c0.72-1.89,1.13-3.33,1.21-5.45
	C-95.74-90.67-95.73-90.16-95.73-90.16z"/>
<ellipse fill="#62345A" cx="-115.65" cy="-91.03" rx="15.62" ry="15.29"/>
<path fill="#FFFFFF" d="M-115.38-80.92c0,0-3.45-9.17-1.57-17.95c0,0,0.38-1.45,1.57-2c0,0,1.14,0.61,1.56,1.93
	C-113.82-98.93-111.8-91.48-115.38-80.92z"/>
<path fill="#FFFFFF" d="M-127.26-89.09v-1.39c0,0,1-1.74,11-4.35v4C-116.26-90.83-117.26-91.26-127.26-89.09z"/>
<path fill="#FFFFFF" d="M-103.26-89.09v-1.39c0,0-1-1.74-11-4.35v4C-114.26-90.83-113.26-91.26-103.26-89.09z"/>
<ellipse fill="#FFFFFF" cx="-123.84" cy="-92.5" rx="1.03" ry="1.89"/>
<ellipse fill="#FFFFFF" cx="-120.62" cy="-93.02" rx="1.03" ry="1.89"/>
<ellipse fill="#FFFFFF" cx="-110.24" cy="-93.02" rx="1.03" ry="1.89"/>
<ellipse fill="#FFFFFF" cx="-107.02" cy="-92.5" rx="1.03" ry="1.89"/>
<path fill="#FFFFFF" d="M-119.26-82.31v-0.52c0,0,1.43-0.83,3.33-0.83h0.89c0,0,1.77-0.19,2.77,0.81v0.54c0,0-1.32-0.37-3.41-0.59
	C-115.66-82.9-116.26-82.92-119.26-82.31z"/>
</svg>
