<?xml version="1.0" encoding="utf-8"?>
<!-- Generator: Adobe Illustrator 18.0.0, SVG Export Plug-In . SVG Version: 6.00 Build 0)  -->
<!DOCTYPE svg PUBLIC "-//W3C//DTD SVG 1.1//EN" "http://www.w3.org/Graphics/SVG/1.1/DTD/svg11.dtd">
<svg version="1.1" id="Слой_1" xmlns="http://www.w3.org/2000/svg" xmlns:xlink="http://www.w3.org/1999/xlink" x="0px" y="0px"
	 viewBox="0 0 39.87 51.08" enable-background="new 0 0 39.87 51.08" xml:space="preserve">
<path fill="#e76251" stroke="#62345A" stroke-miterlimit="10" d="M39.36,20.96h-0.01c0,0,0.01-0.7,0.01-0.84
	c0-10.72-8.7-19.62-19.42-19.62S0.52,9.5,0.52,20.22c0,0.14,0.01,0.74,0.01,0.74H0.52c0,0,0.01-0.33,0.01-0.28
	c0.05,1.68,0.31,3.11,0.76,4.66C5.12,42.39,19.97,50.5,19.97,50.5c11.71-7.23,16.36-17.52,18.2-24.04c0.7-1.89,1.1-3.54,1.17-5.65
	C39.35,20.65,39.36,20.96,39.36,20.96z"/>
<ellipse fill="#62345A" cx="20.02" cy="20.54" rx="15.16" ry="15.27"/>
<rect x="11.75" y="14.79" fill="#FFFFFF" stroke="#62345A" stroke-width="1.0455" stroke-miterlimit="10" width="16.47" height="14.91"/>
<rect x="13.92" y="19.82" fill="#62345A" width="2.99" height="2.99"/>
<rect x="13.92" y="24.25" fill="#62345A" width="2.99" height="2.99"/>
<rect x="18.49" y="24.25" fill="#62345A" width="2.99" height="2.99"/>
<rect x="23.17" y="24.25" fill="#62345A" width="2.99" height="2.99"/>
<rect x="18.49" y="19.82" fill="#62345A" width="2.99" height="2.99"/>
<rect x="23.17" y="19.82" fill="#62345A" width="2.99" height="2.99"/>
<path fill="#FFFFFF" stroke="#62345A" stroke-width="1.0455" stroke-miterlimit="10" d="M15.8,9.89c0,0-0.37,6.16,4.23,8.14
	c0,0,4.47-1.22,4.23-8.14c0,0-1.76-2.31-4.23-2.31S15.8,9.89,15.8,9.89z"/>
<path fill="#62345A" d="M17.64,10.93c0,0-0.21,3.66,2.35,4.83c0,0,2.49-0.73,2.35-4.83c0,0-0.98-1.37-2.35-1.37
	S17.64,10.93,17.64,10.93z"/>
</svg>
