<?xml version="1.0" encoding="utf-8"?>
<!-- Generator: Adobe Illustrator 18.0.0, SVG Export Plug-In . SVG Version: 6.00 Build 0)  -->
<!DOCTYPE svg PUBLIC "-//W3C//DTD SVG 1.1//EN" "http://www.w3.org/Graphics/SVG/1.1/DTD/svg11.dtd">
<svg version="1.1" id="Слой_1" xmlns="http://www.w3.org/2000/svg" xmlns:xlink="http://www.w3.org/1999/xlink" x="0px" y="0px"
	 viewBox="0 0 29.77 30" enable-background="new 0 0 29.77 30" xml:space="preserve">
<path fill="#FFFFFF" stroke="#62345A" stroke-miterlimit="10" d="M-176.36-259.16h-0.01c0,0,0.01-0.62,0.01-0.76
	c0-10.72-8.95-19.58-20-19.58s-20,8.94-20,19.66c0,0.14,0.01,0.68,0.01,0.68h-0.01c0,0,0.01-0.25,0.01-0.21
	c0.05,1.68,0.32,3.14,0.78,4.69c3.95,17.06,19.24,25.18,19.24,25.18c12.06-7.23,16.85-17.51,18.74-24.03
	c0.72-1.89,1.13-3.6,1.21-5.72C-176.36-259.39-176.36-259.16-176.36-259.16z"/>
<ellipse fill="#62345A" cx="-196.27" cy="-259.43" rx="15.62" ry="15.27"/>
<rect x="-204.79" y="-265.17" fill="#FFFFFF" stroke="#62345A" stroke-width="1.0608" stroke-miterlimit="10" width="16.97" height="14.9"/>
<rect x="-202.55" y="-260.15" fill="#62345A" width="3.08" height="2.99"/>
<rect x="-202.55" y="-255.72" fill="#62345A" width="3.08" height="2.99"/>
<rect x="-197.84" y="-255.72" fill="#62345A" width="3.08" height="2.99"/>
<rect x="-193.03" y="-255.72" fill="#62345A" width="3.08" height="2.99"/>
<rect x="-197.84" y="-260.15" fill="#62345A" width="3.08" height="2.99"/>
<rect x="-193.03" y="-260.15" fill="#62345A" width="3.08" height="2.99"/>
<path fill="#FFFFFF" stroke="#62345A" stroke-width="1.0608" stroke-miterlimit="10" d="M-200.61-270.07c0,0-0.38,6.16,4.35,8.14
	c0,0,4.61-1.22,4.35-8.14c0,0-1.81-2.31-4.35-2.31C-198.8-272.38-200.61-270.07-200.61-270.07z"/>
<path fill="#62345A" d="M-198.73-269.03c0,0-0.21,3.66,2.42,4.83c0,0,2.56-0.73,2.42-4.83c0,0-1.01-1.37-2.42-1.37
	C-197.72-270.4-198.73-269.03-198.73-269.03z"/>
</svg>
