<?xml version="1.0" encoding="utf-8"?>
<!-- Generator: Adobe Illustrator 18.0.0, SVG Export Plug-In . SVG Version: 6.00 Build 0)  -->
<!DOCTYPE svg PUBLIC "-//W3C//DTD SVG 1.1//EN" "http://www.w3.org/Graphics/SVG/1.1/DTD/svg11.dtd">
<svg version="1.1" id="Слой_1" xmlns="http://www.w3.org/2000/svg" xmlns:xlink="http://www.w3.org/1999/xlink" x="0px" y="0px"
	 viewBox="0 0 39.87 51.1" enable-background="new 0 0 39.87 51.1" xml:space="preserve">
<path fill="#e76251" stroke="#62345A" stroke-miterlimit="10" d="M39.36,20.97h-0.01c0,0,0.01-0.7,0.01-0.84
	c0-10.73-8.7-19.63-19.42-19.63S0.52,9.5,0.52,20.23c0,0.14,0.01,0.74,0.01,0.74H0.52c0,0,0.01-0.33,0.01-0.28
	c0.05,1.68,0.31,3.11,0.76,4.66c3.84,17.07,18.68,25.18,18.68,25.18c11.71-7.24,16.36-17.53,18.2-24.05c0.7-1.89,1.1-3.54,1.17-5.65
	C39.35,20.66,39.36,20.97,39.36,20.97z"/>
<ellipse fill="#62345A" cx="20.02" cy="20.55" rx="15.16" ry="15.28"/>
<path fill="#FFFFFF" d="M9.01,24.94l4.57-10.84h3.13c0,0,1.37,0.2,2.61,2.15h2.48c0,0,2.42,0.07,4.77,3.85l5.35-0.07
	c0,0-0.78,2.81-5.88,4.9H9.01z"/>
<path fill="#62345A" d="M12.01,20.29l1.29-3.36h8.26c0,0,2.23,0.24,3.79,3.36H12.01z"/>
<path fill="#FFFFFF" d="M16.97,19.27h-2.64c-0.27,0-0.48-0.22-0.48-0.48v-0.17c0-0.27,0.22-0.48,0.48-0.48h2.64
	c0.27,0,0.48,0.22,0.48,0.48v0.17C17.45,19.05,17.23,19.27,16.97,19.27z"/>
<path fill="#FFFFFF" d="M21.79,19.33h-2.64c-0.27,0-0.48-0.22-0.48-0.48v-0.17c0-0.27,0.22-0.48,0.48-0.48h2.64
	c0.27,0,0.48,0.22,0.48,0.48v0.17C22.27,19.11,22.05,19.33,21.79,19.33z"/>
<circle fill="#62345A" cx="26.13" cy="22.37" r="1.13"/>
</svg>
