<?xml version="1.0" encoding="utf-8"?>
<!-- Generator: Adobe Illustrator 18.0.0, SVG Export Plug-In . SVG Version: 6.00 Build 0)  -->
<!DOCTYPE svg PUBLIC "-//W3C//DTD SVG 1.1//EN" "http://www.w3.org/Graphics/SVG/1.1/DTD/svg11.dtd">
<svg version="1.1" id="Слой_1" xmlns="http://www.w3.org/2000/svg" xmlns:xlink="http://www.w3.org/1999/xlink" x="0px" y="0px"
	 viewBox="0 0 29.77 30" enable-background="new 0 0 29.77 30" xml:space="preserve">
<path fill="#FFFFFF" stroke="#62345A" stroke-miterlimit="10" d="M-95.73,53.84h-0.01c0-1,0.01-0.92,0.01-1.07
	c0-10.73-8.95-19.75-20-19.75s-20,9.18-20,19.91c0,0.14,0.01-0.09,0.01,0.91h-0.01c0,0,0.01-0.55,0.01-0.51
	c0.05,1.68,0.32,3,0.78,4.55c3.95,17.08,19.24,25.14,19.24,25.14c12.06-7.24,16.85-17.57,18.74-24.1c0.72-1.89,1.13-3.33,1.21-5.45
	C-95.74,53.33-95.73,53.84-95.73,53.84z"/>
<ellipse fill="#62345A" cx="-115.65" cy="52.97" rx="15.62" ry="15.29"/>
<path fill="#FFFFFF" d="M-126.34,56.14h11.92h7.55c0,0,1.33,0,1.62-1.11c0,0,0.48-8.86-4.23-9.88h-6.31l-10.55,8.63V56.14z"/>
<path fill="#FFFFFF" stroke="#62345A" stroke-width="0.9099" stroke-miterlimit="10" d="M-114.73,56.5c0,0,0.16-7.03-1.44-11.54
	h6.63c0,0,4.44,0.48,4.44,10.37c0,0-0.55,1.16-1.7,1.16H-114.73z"/>
<path fill="#62345A" stroke="#FFFFFF" stroke-width="0.1873" stroke-miterlimit="10" d="M-113.08,47.64c0,0,0.76,1.25,0.76,4.2h4.99
	c0,0-0.43-3.69-1.81-4.2H-113.08z"/>
<polygon fill="#62345A" stroke="#62345A" stroke-width="0.5005" stroke-miterlimit="10" points="-123.64,54.83 -123.64,53.51 
	-117.71,49.32 -117.71,53.26 "/>
<polygon fill="#FFFFFF" points="-120.51,52.16 -118.44,50.86 -118.39,53.03 -120.48,53.73 "/>
<polygon fill="#FFFFFF" points="-123.13,53.95 -121.18,52.64 -121.14,53.89 -123.11,54.46 "/>
<path fill="#FFFFFF" d="M-104.94,59.37h-21.42c-0.12,0-0.22-0.1-0.22-0.22v-0.67c0-0.12,0.1-0.22,0.22-0.22h21.42
	c0.12,0,0.22,0.1,0.22,0.22v0.67C-104.72,59.27-104.82,59.37-104.94,59.37z"/>
<ellipse fill="#62345A" cx="-111.35" cy="53.59" rx="0.77" ry="0.75"/>
<ellipse fill="#62345A" cx="-108.11" cy="53.59" rx="0.77" ry="0.75"/>
</svg>
