<?xml version="1.0" encoding="utf-8"?>
<!-- Generator: Adobe Illustrator 18.0.0, SVG Export Plug-In . SVG Version: 6.00 Build 0)  -->
<!DOCTYPE svg PUBLIC "-//W3C//DTD SVG 1.1//EN" "http://www.w3.org/Graphics/SVG/1.1/DTD/svg11.dtd">
<svg version="1.1" id="Слой_1" xmlns="http://www.w3.org/2000/svg" xmlns:xlink="http://www.w3.org/1999/xlink" x="0px" y="0px"
	 viewBox="0 0 39.87 51.1" enable-background="new 0 0 39.87 51.1" xml:space="preserve">
<path fill="#FFFFFF" stroke="#62345A" stroke-miterlimit="10" d="M39.36,20.97h-0.01c0,0,0.01-0.7,0.01-0.84
	c0-10.73-8.7-19.63-19.42-19.63S0.52,9.5,0.52,20.23c0,0.14,0.01,0.74,0.01,0.74H0.52c0,0,0.01-0.33,0.01-0.28
	c0.05,1.68,0.31,3.11,0.76,4.66c3.84,17.07,18.68,25.18,18.68,25.18c11.71-7.24,16.36-17.53,18.2-24.05c0.7-1.89,1.1-3.54,1.17-5.65
	C39.35,20.66,39.36,20.97,39.36,20.97z"/>
<ellipse fill="#62345A" cx="20.02" cy="20.55" rx="15.16" ry="15.28"/>
<path fill="#FFFFFF" d="M9.64,23.71h11.58h7.34c0,0,1.29,0,1.57-1.11c0,0,0.46-8.86-4.11-9.87h-6.13L9.64,21.36V23.71z"/>
<path fill="#FFFFFF" stroke="#62345A" stroke-width="0.8964" stroke-miterlimit="10" d="M20.91,24.07c0,0,0.16-7.02-1.4-11.53h6.44
	c0,0,4.31,0.48,4.31,10.37c0,0-0.53,1.16-1.65,1.16H20.91z"/>
<path fill="#62345A" stroke="#FFFFFF" stroke-width="0.1845" stroke-miterlimit="10" d="M22.51,15.22c0,0,0.74,1.25,0.74,4.2h4.84
	c0,0-0.42-3.69-1.75-4.2H22.51z"/>
<polygon fill="#62345A" stroke="#62345A" stroke-width="0.493" stroke-miterlimit="10" points="12.26,22.4 12.26,21.09 18.01,16.89 
	18.01,20.84 "/>
<polygon fill="#FFFFFF" points="15.29,19.74 17.31,18.44 17.35,20.61 15.33,21.3 "/>
<polygon fill="#FFFFFF" points="12.75,21.52 14.65,20.22 14.69,21.46 12.77,22.03 "/>
<path fill="#FFFFFF" d="M30.07,26.94H9.96c-0.3,0-0.55-0.25-0.55-0.55v0c0-0.3,0.25-0.55,0.55-0.55h20.11c0.3,0,0.55,0.25,0.55,0.55
	v0C30.63,26.69,30.38,26.94,30.07,26.94z"/>
<circle fill="#62345A" cx="24.2" cy="21.17" r="0.75"/>
<circle fill="#62345A" cx="27.33" cy="21.17" r="0.75"/>
</svg>
