<?xml version="1.0" encoding="utf-8"?>
<!-- Generator: Adobe Illustrator 18.0.0, SVG Export Plug-In . SVG Version: 6.00 Build 0)  -->
<!DOCTYPE svg PUBLIC "-//W3C//DTD SVG 1.1//EN" "http://www.w3.org/Graphics/SVG/1.1/DTD/svg11.dtd">
<svg version="1.1" id="Слой_1" xmlns="http://www.w3.org/2000/svg" xmlns:xlink="http://www.w3.org/1999/xlink" x="0px" y="0px"
	 viewBox="0 0 39.87 51.1" enable-background="new 0 0 39.87 51.1" xml:space="preserve">
<path fill="#e76251" stroke="#62345A" stroke-miterlimit="10" d="M39.36,20.97h-0.01c0,0,0.01-0.7,0.01-0.84
	c0-10.73-8.7-19.63-19.42-19.63S0.52,9.5,0.52,20.23c0,0.14,0.01,0.74,0.01,0.74H0.52c0,0,0.01-0.33,0.01-0.28
	c0.05,1.68,0.31,3.11,0.76,4.66c3.84,17.07,18.68,25.18,18.68,25.18c11.71-7.24,16.36-17.53,18.2-24.05c0.7-1.89,1.1-3.54,1.17-5.65
	C39.35,20.66,39.36,20.97,39.36,20.97z"/>
<ellipse fill="#62345A" cx="20.02" cy="20.55" rx="15.16" ry="15.28"/>
<path fill="#FFFFFF" d="M20.27,30.65c0,0-3.35-9.16-1.52-17.94c0,0,0.37-1.45,1.52-2c0,0,1.1,0.61,1.52,1.93
	C21.79,12.65,23.75,20.1,20.27,30.65z"/>
<path fill="#FFFFFF" d="M8.67,22.48v-1.39c0,0,0-1.74,11-4.34v4C19.67,20.75,18.67,20.31,8.67,22.48z"/>
<path fill="#FFFFFF" d="M31.67,22.48v-1.39c0,0,0-1.74-11-4.34v4C20.67,20.75,22.67,20.31,31.67,22.48z"/>
<ellipse fill="#FFFFFF" cx="12.06" cy="19.07" rx="1" ry="1.89"/>
<ellipse fill="#FFFFFF" cx="15.19" cy="18.55" rx="1" ry="1.89"/>
<ellipse fill="#FFFFFF" cx="25.27" cy="18.55" rx="1" ry="1.89"/>
<ellipse fill="#FFFFFF" cx="28.39" cy="19.07" rx="1" ry="1.89"/>
<path fill="#FFFFFF" d="M16.67,29.26v-0.52c0,0,1.23-0.27,3.08-1.27h0.87c0,0,2.05,0.25,3.05,1.25v0.54c0,0-1.39-0.37-3.41-0.59
	C20.26,28.67,19.67,28.65,16.67,29.26z"/>
</svg>
