<?xml version="1.0" encoding="utf-8"?>
<!-- Generator: Adobe Illustrator 18.0.0, SVG Export Plug-In . SVG Version: 6.00 Build 0)  -->
<!DOCTYPE svg PUBLIC "-//W3C//DTD SVG 1.1//EN" "http://www.w3.org/Graphics/SVG/1.1/DTD/svg11.dtd">
<svg version="1.1" id="Слой_1" xmlns="http://www.w3.org/2000/svg" xmlns:xlink="http://www.w3.org/1999/xlink" x="0px" y="0px"
	 viewBox="0 0 29.77 30" enable-background="new 0 0 29.77 30" xml:space="preserve">
<path fill="#FFFFFF" stroke="#62345A" stroke-miterlimit="10" d="M-111.54-25.16h-0.01c0-1,0.01-0.53,0.01-0.67
	c0-10.71-8.95-19.52-20-19.52s-20,8.87-20,19.58c0,0.14,0.01-0.39,0.01,0.61h-0.01c0,0,0.01-0.16,0.01-0.11
	c0.05,1.68,0.32,3.19,0.78,4.74c3.95,17.05,19.24,25.19,19.24,25.19c12.06-7.23,16.85-17.49,18.74-24c0.72-1.89,1.13-3.69,1.21-5.81
	C-111.54-25.3-111.54-25.16-111.54-25.16z"/>
<ellipse fill="#62345A" cx="-131.46" cy="-25.24" rx="15.62" ry="15.26"/>
<path fill="#FFFFFF" d="M-142.79-20.86l4.71-10.83h3.23c0,0,1.41,0.2,2.69,2.15h2.56c0,0,2.49,0.07,4.91,3.85l5.51-0.07
	c0,0-0.81,2.8-6.05,4.89H-142.79z"/>
<path fill="#62345A" d="M-139.71-25.49l1.32-3.36h8.5c0,0,2.3,0.24,3.9,3.36H-139.71z"/>
<path fill="#FFFFFF" d="M-134.59-26.51h-2.74c-0.27,0-0.49-0.22-0.49-0.49v-0.15c0-0.27,0.22-0.49,0.49-0.49h2.74
	c0.27,0,0.49,0.22,0.49,0.49v0.15C-134.1-26.73-134.32-26.51-134.59-26.51z"/>
<path fill="#FFFFFF" d="M-129.63-26.45h-2.74c-0.27,0-0.49-0.22-0.49-0.49v-0.15c0-0.27,0.22-0.49,0.49-0.49h2.74
	c0.27,0,0.49,0.22,0.49,0.49v0.15C-129.13-26.68-129.35-26.45-129.63-26.45z"/>
<ellipse fill="#62345A" cx="-125.16" cy="-23.42" rx="1.16" ry="1.13"/>
</svg>
