<?xml version="1.0" encoding="utf-8"?>
<!-- Generator: Adobe Illustrator 18.0.0, SVG Export Plug-In . SVG Version: 6.00 Build 0)  -->
<!DOCTYPE svg PUBLIC "-//W3C//DTD SVG 1.1//EN" "http://www.w3.org/Graphics/SVG/1.1/DTD/svg11.dtd">
<svg version="1.1" id="Слой_1" xmlns="http://www.w3.org/2000/svg" xmlns:xlink="http://www.w3.org/1999/xlink" x="0px" y="0px"
	 viewBox="0 0 29.77 30" enable-background="new 0 0 29.77 30" xml:space="preserve">
<path fill="#FFFFFF" stroke="#62345A" stroke-miterlimit="10" d="M-134.06-136.16h-0.01c0,0,0.01-0.79,0.01-0.93
	c0-10.73-8.95-19.68-20-19.68c-11.05,0-20,9.07-20,19.8c0,0.14,0.01,0.8,0.01,0.8h-0.01c0,0,0.01-0.42,0.01-0.38
	c0.05,1.68,0.32,3.06,0.78,4.61c3.95,17.07,19.24,25.16,19.24,25.16c12.06-7.24,16.85-17.54,18.74-24.07
	c0.72-1.89,1.13-3.45,1.21-5.57C-134.06-136.55-134.06-136.16-134.06-136.16z"/>
<ellipse fill="#62345A" cx="-153.97" cy="-136.76" rx="15.62" ry="15.28"/>
<polygon fill="#FFFFFF" points="-163.97,-138.87 -165.72,-140.31 -153.8,-148.84 -142.41,-140.31 -144.17,-138.87 "/>
<path fill="#FFFFFF" d="M-147.53-127.21h-13.41c-0.99,0-1.79-0.8-1.79-1.79v-10.19h17.2v9.99
	C-145.54-128.1-146.43-127.21-147.53-127.21z"/>
<rect x="-161.09" y="-138.98" fill="#62345A" width="13.97" height="10.16"/>
<rect x="-153.85" y="-136.11" fill="#FFFFFF" width="5.53" height="7.35"/>
<rect x="-159.7" y="-134.45" fill="#FFFFFF" width="2.19" height="1.38"/>
<rect x="-157.15" y="-134.45" fill="#FFFFFF" width="2.19" height="1.38"/>
<rect x="-157.15" y="-132.65" fill="#FFFFFF" width="2.19" height="1.38"/>
<rect x="-159.7" y="-132.62" fill="#FFFFFF" width="2.19" height="1.38"/>
<path fill="#FFFFFF" stroke="#62345A" stroke-width="0.8767" stroke-miterlimit="10" d="M-157.46-141.72c0,0-0.31,5.1,3.6,6.73
	c0,0,3.81-1.01,3.6-6.73c0,0-1.5-1.91-3.6-1.91C-155.96-143.63-157.46-141.72-157.46-141.72z"/>
<path fill="#62345A" d="M-155.9-140.86c0,0-0.17,3.03,2,4c0,0,2.12-0.6,2-4c0,0-0.83-1.13-2-1.13S-155.9-140.86-155.9-140.86z"/>
</svg>
