<?xml version="1.0" encoding="utf-8"?>
<!-- Generator: Adobe Illustrator 18.0.0, SVG Export Plug-In . SVG Version: 6.00 Build 0)  -->
<!DOCTYPE svg PUBLIC "-//W3C//DTD SVG 1.1//EN" "http://www.w3.org/Graphics/SVG/1.1/DTD/svg11.dtd">
<svg version="1.1" id="Слой_1" xmlns="http://www.w3.org/2000/svg" xmlns:xlink="http://www.w3.org/1999/xlink" x="0px" y="0px"
	 viewBox="0 0 39.87 51.1" enable-background="new 0 0 39.87 51.1" xml:space="preserve">
<path fill="#e76251" stroke="#62345A" stroke-miterlimit="10" d="M39.36,20.97h-0.01c0,0,0.01-0.7,0.01-0.84
	c0-10.73-8.7-19.63-19.42-19.63S0.52,9.5,0.52,20.23c0,0.14,0.01,0.74,0.01,0.74H0.52c0,0,0.01-0.33,0.01-0.28
	c0.05,1.68,0.31,3.11,0.76,4.66c3.84,17.07,18.68,25.18,18.68,25.18c11.71-7.24,16.36-17.53,18.2-24.05c0.7-1.89,1.1-3.54,1.17-5.65
	C39.35,20.66,39.36,20.97,39.36,20.97z"/>
<ellipse fill="#62345A" cx="20.02" cy="20.55" rx="15.16" ry="15.28"/>
<polygon fill="#FFFFFF" points="10.31,18.44 8.61,17 20.19,8.47 31.24,17 29.54,18.44 "/>
<path fill="#FFFFFF" d="M26.25,30.09H13.28c-0.98,0-1.77-0.79-1.77-1.77V18.11h16.7v10.02C28.21,29.21,27.33,30.09,26.25,30.09z"/>
<rect x="13.11" y="18.33" fill="#62345A" width="13.56" height="10.16"/>
<rect x="20.14" y="21.2" fill="#FFFFFF" width="5.37" height="7.35"/>
<rect x="14.46" y="22.86" fill="#FFFFFF" width="2.13" height="1.38"/>
<rect x="16.93" y="22.86" fill="#FFFFFF" width="2.13" height="1.38"/>
<rect x="16.93" y="24.66" fill="#FFFFFF" width="2.13" height="1.38"/>
<rect x="14.46" y="24.68" fill="#FFFFFF" width="2.13" height="1.38"/>
<path fill="#FFFFFF" stroke="#62345A" stroke-width="0.8639" stroke-miterlimit="10" d="M16.64,15.58c0,0-0.31,5.09,3.49,6.73
	c0,0,3.7-1.01,3.49-6.73c0,0-1.46-1.91-3.49-1.91S16.64,15.58,16.64,15.58z"/>
<path fill="#62345A" d="M18.15,16.44c0,0-0.17,3.03,1.94,4c0,0,2.06-0.6,1.94-4c0,0-0.81-1.13-1.94-1.13
	C18.96,15.31,18.15,16.44,18.15,16.44z"/>
</svg>
