<?xml version="1.0" encoding="utf-8"?>
<!-- Generator: Adobe Illustrator 18.0.0, SVG Export Plug-In . SVG Version: 6.00 Build 0)  -->
<!DOCTYPE svg PUBLIC "-//W3C//DTD SVG 1.1//EN" "http://www.w3.org/Graphics/SVG/1.1/DTD/svg11.dtd">
<svg version="1.1" id="Слой_1" xmlns="http://www.w3.org/2000/svg" xmlns:xlink="http://www.w3.org/1999/xlink" x="0px" y="0px"
	 viewBox="0 0 41.03 49.71" enable-background="new 0 0 41.03 49.71" xml:space="preserve">
<path fill="#e76251" stroke="#62345A" stroke-miterlimit="10" d="M40.52,20.32h-0.01c0,0,0.01-0.62,0.01-0.76
	c0-10.43-8.95-19.05-20-19.05s-20,8.71-20,19.14c0,0.14,0.01,0.68,0.01,0.68H0.52c0,0,0.01-0.27,0.01-0.22
	c0.05,1.64,0.32,3.05,0.78,4.55c3.95,16.59,19.24,24.49,19.24,24.49C32.61,42.1,37.4,32.1,39.3,25.76c0.72-1.84,1.13-3.49,1.21-5.55
	C40.52,20.07,40.52,20.32,40.52,20.32z"/>
<ellipse fill="#62345A" cx="20.47" cy="19.88" rx="14.78" ry="14.06"/>
<ellipse fill="#FFFFFF" cx="20.49" cy="18.36" rx="5.34" ry="5.04"/>
<path fill="#FFFFFF" d="M16.12,23.74c0,0,4.24,3.39,8.85,0c0,0,4.15,1.04,3.96,4.96c-0.18,3.92-0.83,6-3.13,6
	c0,0-1.9,11.14-5.28,11.14s-5.23-11.05-5.23-11.05s-2.76,1.04-3.32-6.18C11.97,28.61,11.79,25.13,16.12,23.74z"/>
<ellipse fill="#62345A" cx="20.46" cy="16.05" rx="4.33" ry="3.14"/>
<ellipse fill="#FFFFFF" cx="20.42" cy="13.56" rx="7.8" ry="3.21"/>
<ellipse fill="#62345A" cx="20.57" cy="15.58" rx="5.51" ry="1.46"/>
<ellipse fill="none" stroke="#62345A" stroke-width="1.7937" stroke-miterlimit="10" cx="20.62" cy="19.88" rx="14.78" ry="14.06"/>
</svg>
