<?xml version="1.0" encoding="utf-8"?>
<!-- Generator: Adobe Illustrator 18.0.0, SVG Export Plug-In . SVG Version: 6.00 Build 0)  -->
<!DOCTYPE svg PUBLIC "-//W3C//DTD SVG 1.1//EN" "http://www.w3.org/Graphics/SVG/1.1/DTD/svg11.dtd">
<svg version="1.1" id="Слой_1" xmlns="http://www.w3.org/2000/svg" xmlns:xlink="http://www.w3.org/1999/xlink" x="0px" y="0px"
	 viewBox="0 0 29.77 30" enable-background="new 0 0 29.77 30" xml:space="preserve">
<path fill="#FFFFFF" stroke="#62345A" stroke-miterlimit="10" d="M-70.27-144.16h-0.01c0-1,0.01-0.87,0.01-1.01
	c0-10.73-8.95-19.73-20-19.73s-20,9.14-20,19.88c0,0.14,0.01-0.13,0.01,0.87h-0.01c0,0,0.01-0.5,0.01-0.46
	c0.05,1.69,0.32,3.02,0.78,4.57c3.95,17.08,19.24,25.16,19.24,25.16c12.06-7.24,16.85-17.57,18.74-24.09
	c0.72-1.89,1.13-3.38,1.21-5.49C-70.27-144.63-70.27-144.16-70.27-144.16z"/>
<ellipse fill="#62345A" cx="-90.32" cy="-145.06" rx="14.78" ry="14.48"/>
<ellipse fill="#FFFFFF" cx="-90.3" cy="-146.63" rx="5.34" ry="5.19"/>
<path fill="#FFFFFF" d="M-94.67-141.09c0,0,4.24,3.49,8.85,0c0,0,4.15,1.07,3.96,5.11s-0.83,6.18-3.13,6.18
	c0,0-1.9,11.46-5.28,11.46c-3.38,0-5.23-11.38-5.23-11.38s-2.76,1.07-3.32-6.36C-98.82-136.08-99-139.66-94.67-141.09z"/>
<ellipse fill="#62345A" cx="-90.33" cy="-149.01" rx="4.33" ry="3.23"/>
<ellipse fill="#FFFFFF" cx="-90.37" cy="-151.58" rx="7.8" ry="3.3"/>
<ellipse fill="#62345A" cx="-90.22" cy="-149.5" rx="5.51" ry="1.5"/>
<ellipse fill="none" stroke="#62345A" stroke-width="1.82" stroke-miterlimit="10" cx="-90.17" cy="-145.06" rx="14.78" ry="14.48"/>
</svg>
