<?xml version="1.0" encoding="utf-8"?>
<!-- Generator: Adobe Illustrator 18.0.0, SVG Export Plug-In . SVG Version: 6.00 Build 0)  -->
<!DOCTYPE svg PUBLIC "-//W3C//DTD SVG 1.1//EN" "http://www.w3.org/Graphics/SVG/1.1/DTD/svg11.dtd">
<svg version="1.1" id="Слой_1" xmlns="http://www.w3.org/2000/svg" xmlns:xlink="http://www.w3.org/1999/xlink" x="0px" y="0px"
	 viewBox="0 0 40.04 51.08" enable-background="new 0 0 40.04 51.08" xml:space="preserve">
<path fill="#FFFFFF" stroke="#62345A" stroke-miterlimit="10" d="M39.46,20.49h-0.01c0,0,0.01-0.4,0.01-0.54
	c0-10.71-8.68-19.44-19.38-19.44S0.69,9.27,0.69,19.97c0,0.14,0.01,0.51,0.01,0.51H0.69c0,0,0.01-0.03,0.01,0.01
	c0.05,1.68,0.31,3.25,0.76,4.8C5.29,42.33,20.11,50.5,20.11,50.5c11.69-7.22,16.33-17.46,18.17-23.97c0.69-1.89,1.1-3.81,1.17-5.92
	C39.45,20.46,39.46,20.49,39.46,20.49z"/>
<ellipse fill="#E94944" cx="20.02" cy="20.52" rx="14.33" ry="14.44"/>
</svg>
