<?xml version="1.0" encoding="utf-8"?>
<!-- Generator: Adobe Illustrator 18.0.0, SVG Export Plug-In . SVG Version: 6.00 Build 0)  -->
<!DOCTYPE svg PUBLIC "-//W3C//DTD SVG 1.1//EN" "http://www.w3.org/Graphics/SVG/1.1/DTD/svg11.dtd">
<svg version="1.1" id="Слой_1" xmlns="http://www.w3.org/2000/svg" xmlns:xlink="http://www.w3.org/1999/xlink" x="0px" y="0px"
	 viewBox="0 0 29.77 30" enable-background="new 0 0 29.77 30" xml:space="preserve">
<circle fill="#62345A" cx="14.95" cy="15.14" r="15"/>
<path fill="#FFFFFF" d="M15.2,25.05c0,0-3.31-9-1.51-17.61c0,0,0.37-1.42,1.51-1.96c0,0,1.09,0.6,1.5,1.9
	C16.7,7.38,18.64,14.69,15.2,25.05z"/>
<path fill="#FFFFFF" d="M4.74,17.04v-1.36c0,0,0-1.71,10-4.26v3.92C14.74,15.33,13.74,14.91,4.74,17.04z"/>
<path fill="#FFFFFF" d="M26.74,17.04v-1.36c0,0-1-1.71-11-4.26v3.92C15.74,15.33,17.74,14.91,26.74,17.04z"/>
<ellipse fill="#FFFFFF" cx="7.08" cy="13.69" rx="0.99" ry="1.85"/>
<ellipse fill="#FFFFFF" cx="10.17" cy="13.18" rx="0.99" ry="1.85"/>
<ellipse fill="#FFFFFF" cx="20.14" cy="13.18" rx="0.99" ry="1.85"/>
<ellipse fill="#FFFFFF" cx="23.23" cy="13.69" rx="0.99" ry="1.85"/>
<path fill="#FFFFFF" d="M11.74,23.69v-0.51c0,0,1.11-0.84,2.94-1.84h0.86c0,0,2.2,0.83,3.2,1.81v0.53c0,0-1.41-0.36-3.41-0.58
	C15.33,23.11,14.74,23.09,11.74,23.69z"/>
</svg>
