<?xml version="1.0" encoding="utf-8"?>
<!-- Generator: Adobe Illustrator 18.0.0, SVG Export Plug-In . SVG Version: 6.00 Build 0)  -->
<!DOCTYPE svg PUBLIC "-//W3C//DTD SVG 1.1//EN" "http://www.w3.org/Graphics/SVG/1.1/DTD/svg11.dtd">
<svg version="1.1" id="Слой_1" xmlns="http://www.w3.org/2000/svg" xmlns:xlink="http://www.w3.org/1999/xlink" x="0px" y="0px"
	 viewBox="0 0 29.77 30" enable-background="new 0 0 29.77 30" xml:space="preserve">
<circle fill="#62345A" cx="14.83" cy="15.02" r="15"/>
<path fill="#FFFFFF" d="M4.89,18.13h11.09h7.03c0,0,1.24,0,1.5-1.09c0,0,0.44-8.7-3.93-9.69h-5.87l-9.82,8.47V18.13z"/>
<path fill="#FFFFFF" stroke="#62345A" stroke-width="0.8693" stroke-miterlimit="10" d="M15.69,18.48c0,0,0.15-6.89-1.34-11.32h6.16
	c0,0,4.13,0.48,4.13,10.18c0,0-0.51,1.14-1.58,1.14H15.69z"/>
<path fill="#62345A" stroke="#FFFFFF" stroke-width="0.179" stroke-miterlimit="10" d="M17.22,9.8c0,0,0.71,1.22,0.71,4.12h4.64
	c0,0-0.4-3.62-1.68-4.12H17.22z"/>
<polygon fill="#62345A" stroke="#62345A" stroke-width="0.4781" stroke-miterlimit="10" points="7.4,16.84 7.4,15.55 12.91,11.44 
	12.91,15.31 "/>
<polygon fill="#FFFFFF" points="10.31,14.23 12.24,12.95 12.28,15.08 10.34,15.76 "/>
<polygon fill="#FFFFFF" points="7.87,15.98 9.69,14.7 9.73,15.92 7.89,16.48 "/>
<path fill="#FFFFFF" d="M24.46,21.3H5.21c-0.3,0-0.54-0.24-0.54-0.54v-0.01c0-0.3,0.24-0.54,0.54-0.54h19.26
	c0.3,0,0.54,0.24,0.54,0.54v0.01C25,21.06,24.76,21.3,24.46,21.3z"/>
<ellipse fill="#62345A" cx="18.84" cy="15.63" rx="0.72" ry="0.73"/>
<ellipse fill="#62345A" cx="21.84" cy="15.63" rx="0.72" ry="0.73"/>
</svg>
