<?xml version="1.0" encoding="utf-8"?>
<!-- Generator: Adobe Illustrator 18.0.0, SVG Export Plug-In . SVG Version: 6.00 Build 0)  -->
<!DOCTYPE svg PUBLIC "-//W3C//DTD SVG 1.1//EN" "http://www.w3.org/Graphics/SVG/1.1/DTD/svg11.dtd">
<svg version="1.1" id="Слой_1" xmlns="http://www.w3.org/2000/svg" xmlns:xlink="http://www.w3.org/1999/xlink" x="0px" y="0px"
	 viewBox="0 0 29.77 30" enable-background="new 0 0 29.77 30" xml:space="preserve">
<circle fill="#62345A" cx="14.98" cy="15.17" r="15"/>
<path fill="#FFFFFF" d="M4.08,19.47L8.61,8.83h3.1c0,0,1.36,0.19,2.58,2.12h2.45c0,0,2.39,0.06,4.72,3.78l5.3-0.06
	c0,0-0.78,2.76-5.81,4.81H4.08z"/>
<path fill="#62345A" d="M7.05,14.92l1.27-3.3h8.17c0,0,2.21,0.24,3.75,3.3H7.05z"/>
<path fill="#FFFFFF" d="M11.96,13.91H9.34c-0.26,0-0.48-0.22-0.48-0.48v-0.16c0-0.26,0.22-0.48,0.48-0.48h2.62
	c0.26,0,0.48,0.22,0.48,0.48v0.16C12.44,13.7,12.22,13.91,11.96,13.91z"/>
<path fill="#FFFFFF" d="M16.73,13.97h-2.62c-0.26,0-0.48-0.22-0.48-0.48v-0.16c0-0.26,0.22-0.48,0.48-0.48h2.62
	c0.26,0,0.48,0.22,0.48,0.48v0.16C17.21,13.75,16.99,13.97,16.73,13.97z"/>
<ellipse fill="#62345A" cx="21.02" cy="16.95" rx="1.12" ry="1.11"/>
</svg>
