<?xml version="1.0" encoding="utf-8"?>
<!-- Generator: Adobe Illustrator 18.0.0, SVG Export Plug-In . SVG Version: 6.00 Build 0)  -->
<!DOCTYPE svg PUBLIC "-//W3C//DTD SVG 1.1//EN" "http://www.w3.org/Graphics/SVG/1.1/DTD/svg11.dtd">
<svg version="1.1" id="Слой_1" xmlns="http://www.w3.org/2000/svg" xmlns:xlink="http://www.w3.org/1999/xlink" x="0px" y="0px"
	 viewBox="0 0 29.77 30" enable-background="new 0 0 29.77 30" xml:space="preserve">
<circle fill="#62345A" cx="14.95" cy="15.14" r="15"/>
<rect x="6.77" y="9.49" fill="#FFFFFF" stroke="#62345A" stroke-width="1.0305" stroke-miterlimit="10" width="16.3" height="14.64"/>
<rect x="8.92" y="14.43" fill="#62345A" width="2.96" height="2.93"/>
<rect x="8.92" y="18.78" fill="#62345A" width="2.96" height="2.93"/>
<rect x="13.44" y="18.78" fill="#62345A" width="2.96" height="2.93"/>
<rect x="18.07" y="18.78" fill="#62345A" width="2.96" height="2.93"/>
<rect x="13.44" y="14.43" fill="#62345A" width="2.96" height="2.93"/>
<rect x="18.07" y="14.43" fill="#62345A" width="2.96" height="2.93"/>
<path fill="#FFFFFF" stroke="#62345A" stroke-width="1.0305" stroke-miterlimit="10" d="M10.78,4.68c0,0-0.37,6.05,4.18,8
	c0,0,4.43-1.2,4.18-8c0,0-1.74-2.26-4.18-2.26S10.78,4.68,10.78,4.68z"/>
<path fill="#62345A" d="M12.59,5.7c0,0-0.2,3.6,2.33,4.75c0,0,2.46-0.71,2.33-4.75c0,0-0.97-1.34-2.33-1.34S12.59,5.7,12.59,5.7z"/>
</svg>
