<?xml version="1.0" encoding="utf-8"?>
<!-- Generator: Adobe Illustrator 18.0.0, SVG Export Plug-In . SVG Version: 6.00 Build 0)  -->
<!DOCTYPE svg PUBLIC "-//W3C//DTD SVG 1.1//EN" "http://www.w3.org/Graphics/SVG/1.1/DTD/svg11.dtd">
<svg version="1.1" id="Слой_1" xmlns="http://www.w3.org/2000/svg" xmlns:xlink="http://www.w3.org/1999/xlink" x="0px" y="0px"
	 viewBox="0 0 29.77 30" enable-background="new 0 0 29.77 30" xml:space="preserve">
<circle fill="#62345A" cx="14.78" cy="14.97" r="15"/>
<polygon fill="#FFFFFF" points="5.18,12.9 3.5,11.49 14.96,3.11 25.89,11.49 24.21,12.9 "/>
<path fill="#FFFFFF" d="M20.95,24.34H8.11c-0.96,0-1.74-0.78-1.74-1.74V12.58h16.52v9.83C22.89,23.48,22.02,24.34,20.95,24.34z"/>
<rect x="7.95" y="12.79" fill="#62345A" width="13.42" height="9.98"/>
<rect x="14.9" y="15.61" fill="#FFFFFF" width="5.31" height="7.22"/>
<rect x="9.28" y="17.24" fill="#FFFFFF" width="2.1" height="1.36"/>
<rect x="11.73" y="17.24" fill="#FFFFFF" width="2.1" height="1.36"/>
<rect x="11.73" y="19.01" fill="#FFFFFF" width="2.1" height="1.36"/>
<rect x="9.29" y="19.03" fill="#FFFFFF" width="2.1" height="1.36"/>
<path fill="#FFFFFF" stroke="#62345A" stroke-width="0.8513" stroke-miterlimit="10" d="M11.44,10.1c0,0-0.3,5,3.45,6.6
	c0,0,3.66-0.99,3.45-6.6c0,0-1.44-1.87-3.45-1.87S11.44,10.1,11.44,10.1z"/>
<path fill="#62345A" d="M12.94,10.94c0,0-0.17,2.97,1.92,3.92c0,0,2.03-0.59,1.92-3.92c0,0-0.8-1.11-1.92-1.11
	S12.94,10.94,12.94,10.94z"/>
</svg>
