<?xml version="1.0" encoding="utf-8"?>
<!-- Generator: Adobe Illustrator 18.0.0, SVG Export Plug-In . SVG Version: 6.00 Build 0)  -->
<!DOCTYPE svg PUBLIC "-//W3C//DTD SVG 1.1//EN" "http://www.w3.org/Graphics/SVG/1.1/DTD/svg11.dtd">
<svg version="1.1" id="Слой_1" xmlns="http://www.w3.org/2000/svg" xmlns:xlink="http://www.w3.org/1999/xlink" x="0px" y="0px"
	 viewBox="0 0 29.77 30" enable-background="new 0 0 29.77 30" xml:space="preserve">
<circle fill="#62345A" cx="14.87" cy="15.61" r="15"/>
<ellipse fill="#FFFFFF" cx="15.04" cy="12.26" rx="4.96" ry="4.92"/>
<ellipse fill="#62345A" cx="15.01" cy="10.01" rx="4.03" ry="3.06"/>
<ellipse fill="#FFFFFF" cx="14.97" cy="7.58" rx="7.24" ry="3.13"/>
<ellipse fill="#62345A" cx="15.11" cy="9.55" rx="5.11" ry="1.42"/>
<g>
	<path fill="none" d="M14.68,0.98c-7.32,0-13.25,5.93-13.25,13.25c0,4.59,2.34,8.64,5.89,11.02c-0.17-0.74-0.31-1.66-0.39-2.79
		c0,0-0.17-3.28,3.72-4.59c0,0,3.8,3.2,7.93,0c0,0,3.72,0.98,3.55,4.67c-0.05,1.11-0.14,2.06-0.29,2.85
		c3.67-2.36,6.09-6.47,6.09-11.15C27.93,6.91,22,0.98,14.68,0.98z"/>
	<path fill="#FFFFFF" d="M18.57,17.87c-4.13,3.2-7.93,0-7.93,0c-3.88,1.31-3.72,4.59-3.72,4.59c0.08,1.13,0.22,2.05,0.39,2.79
		c2.11,1.41,4.64,2.23,7.36,2.23c2.64,0,5.09-0.77,7.16-2.1c0.15-0.79,0.24-1.74,0.29-2.85C22.29,18.85,18.57,17.87,18.57,17.87z"/>
</g>
</svg>
