<?xml version="1.0" standalone="no"?>
<!DOCTYPE svg PUBLIC "-//W3C//DTD SVG 1.1//EN" "http://www.w3.org/Graphics/SVG/1.1/DTD/svg11.dtd" >
<svg xmlns="http://www.w3.org/2000/svg">
<metadata>Generated by IcoMoon</metadata>
<defs>
<font id="icomoon2" horiz-adv-x="1024">
<font-face units-per-em="1024" ascent="960" descent="-64" />
<missing-glyph horiz-adv-x="1024" />
<glyph unicode="&#x20;" horiz-adv-x="512" d="" />
<glyph unicode="&#xe900;" glyph-name="Close_b" d="M551.385 448l453.257 453.257c5.34 5.34 8.010 12.016 8.010 19.359 0 15.353-12.683 28.037-28.037 28.037-7.343 0-14.686-3.338-19.359-8.010l-453.257-453.257-453.257 453.257c-4.673 4.673-12.016 8.010-19.359 8.010-15.353 0-28.037-12.683-28.037-28.037 0-8.010 3.338-14.686 8.010-20.026l453.257-453.257-453.257-453.257c-5.34-5.34-8.010-12.016-8.010-19.359 0-15.353 12.683-28.037 28.037-28.037 8.010 0 14.686 3.338 19.359 8.010l453.257 453.257 453.257-453.257c5.34-5.34 12.016-8.010 19.359-8.010 15.353 0 28.037 12.683 28.037 28.037 0 8.010-3.338 14.686-8.010 19.359l-453.257 453.924z" />
<glyph unicode="&#xe901;" glyph-name="Gruppirovka" horiz-adv-x="1496" d="M236.052 841.974c0-65.184-52.842-118.026-118.026-118.026s-118.026 52.842-118.026 118.026c0 65.184 52.842 118.026 118.026 118.026s118.026-52.842 118.026-118.026zM236.052 448c0-65.184-52.842-118.026-118.026-118.026s-118.026 52.842-118.026 118.026c0 65.184 52.842 118.026 118.026 118.026s118.026-52.842 118.026-118.026zM236.052 54.857c0-65.184-52.842-118.026-118.026-118.026s-118.026 52.842-118.026 118.026c0 65.184 52.842 118.026 118.026 118.026s118.026-52.842 118.026-118.026zM1457.039 802.909h-1024c-21.61 0-39.065 17.455-39.065 39.065v0c0 21.61 17.455 39.065 39.065 39.065h1024c21.61 0 39.065-17.455 39.065-39.065v0c0-21.61-17.455-39.065-39.065-39.065zM1457.039 408.935h-1024c-21.61 0-39.065 17.455-39.065 39.065v0c0 21.61 17.455 39.065 39.065 39.065h1024c21.61 0.831 39.065-17.455 39.065-39.065v0c0-21.61-17.455-39.065-39.065-39.065zM1457.039 14.961h-1024c-21.61 0-39.065 17.455-39.065 39.065v0c0 21.61 17.455 39.065 39.065 39.065h1024c21.61 0 39.065-17.455 39.065-39.065v0c0-21.61-17.455-39.065-39.065-39.065z" />
<glyph unicode="&#xe902;" horiz-adv-x="795" d="M794.624 543.573v0c0 0 0 12.971 0 15.701 0 219.136-177.493 400.725-397.312 400.725s-397.312-182.955-397.312-402.773c0-2.731 0-13.653 0-13.653v0c0 0 0 5.461 0 4.096 0.683-34.133 6.144-64.171 15.701-96.256 78.507-348.843 382.293-515.413 382.293-515.413 239.616 148.139 334.507 358.4 372.736 492.203 14.336 38.912 22.528 73.728 23.893 117.419 0 2.731 0-2.048 0-2.048z" />
<glyph unicode="&#xe903;" horiz-adv-x="795" d="M709.973 549.035c0-172.678-139.066-312.661-310.613-312.661s-310.613 139.983-310.613 312.661c0 172.678 139.066 312.661 310.613 312.661s310.613-139.983 310.613-312.661z" />
<glyph unicode="&#xe904;" glyph-name="Napisat" horiz-adv-x="1418" d="M1288.665 960h-1159.483c-71.68 0-129.182-57.502-129.182-128.394v-768c0-70.105 57.502-127.606 129.182-127.606h1160.271c70.892 0 129.182 57.502 129.182 128.394v767.212c-0.788 70.892-58.289 128.394-129.969 128.394zM129.182 896.197h1160.271c7.877 0 14.966-1.575 21.268-3.938l-558.474-553.748c-11.028-11.815-26.782-18.117-43.323-18.117s-32.295 6.302-43.323 18.117l-558.474 553.748c7.089 2.363 14.178 3.938 22.055 3.938zM64.591 64.394v767.212c0 3.938 0.788 7.877 0.788 11.028l397.785-394.634-397.785-395.422c-0.788 3.938-0.788 7.877-0.788 11.815zM1288.665-0.197h-1159.483c-7.877 0-14.966 1.575-21.268 3.938l401.723 398.572 110.277-109.489c24.418-24.418 56.714-37.022 89.009-37.022s64.591 12.603 89.009 37.022l110.277 109.489 401.723-398.572c-6.302-2.363-13.391-3.938-21.268-3.938zM1353.255 64.394c0-3.938-0.788-7.877-0.788-11.028l-397.785 394.634 397.785 395.422c0.788-3.938 0.788-7.089 0.788-11.028v-768z" />
<glyph unicode="&#xe905;" glyph-name="Poisk" d="M970.359 19.901l-223.506 223.506c63.957 70.834 103.156 165.050 103.156 267.519 0 221.443-179.492 400.935-400.935 400.935s-400.935-179.492-400.935-400.935c0-221.443 179.492-400.935 400.935-400.935 103.156 0 196.685 39.199 267.519 103.156l223.506-223.506c4.126-4.126 8.94-6.189 15.13-6.189 11.691 0 21.319 9.628 21.319 21.319 0 5.502-2.751 11.003-6.189 15.13zM449.075 152.629c-198.060 0-358.985 160.924-358.985 358.985s160.924 358.985 358.985 358.985 358.985-160.924 358.985-358.985-160.924-358.985-358.985-358.985z" />
<glyph unicode="&#xe906;" glyph-name="Sortirovka" horiz-adv-x="1778" d="M1144.746 839.254h-253.66c-32.761 0-59.905 27.144-59.905 59.905v0c0 32.761 27.144 59.905 59.905 59.905h253.66c32.761 0 59.905-27.144 59.905-59.905v0c0-33.697-27.144-59.905-59.905-59.905zM1355.349 540.665h-455.839c-31.824 0-58.969 26.208-58.969 58.969v1.872c0 31.824 26.208 58.969 58.969 58.969h456.775c31.824 0 58.969-26.208 58.969-58.969v-2.808c-0.936-31.824-27.144-58.033-59.905-58.033zM1551.912 241.141h-640.234c-32.761 0-58.969 26.208-58.969 58.969v1.872c0 32.761 26.208 58.969 58.969 58.969h640.234c32.761 0 58.969-26.208 58.969-58.969v-0.936c0.936-32.761-26.208-59.905-58.969-59.905zM1718.523-57.448h-812.461c-32.761 0-59.905 27.144-59.905 59.905v0c0 32.761 27.144 59.905 59.905 59.905h812.461c32.761 0 59.905-27.144 59.905-59.905v0c0-32.761-27.144-59.905-59.905-59.905zM270.508-42.472l-254.596 301.397c-26.208 30.888-18.72 73.009 16.848 93.601l10.296 5.616c24.336 14.040 59.905 7.488 77.689-14.040l254.596-301.397c26.208-30.888 18.72-73.009-16.848-93.601l-10.296-5.616c-25.272-14.040-59.905-7.488-77.689 14.040zM269.572 45.514l254.596 301.397c18.72 21.528 53.353 28.080 77.689 14.040l10.296-5.616c35.569-20.592 43.057-62.713 16.848-93.601l-254.596-301.397c-17.784-21.528-53.353-28.080-77.689-14.040l-10.296 5.616c-35.569 20.592-43.057 62.713-16.848 93.601zM394.062 908.519v-912.614c0-28.080-23.4-51.481-51.481-51.481h-42.121c-28.080 0-51.481 23.4-51.481 51.481v912.614c0 28.080 22.464 51.481 51.481 51.481h43.057c28.080 0 50.545-23.4 50.545-51.481z" />
<glyph unicode="&#xe907;" glyph-name="Strelka_vniz_b" horiz-adv-x="1934" d="M1831.822 903.111c-12.516 0-23.893-4.551-31.858-13.653l-832.853-788.48-832.853 788.48c-7.964 9.102-19.342 13.653-31.858 13.653-25.031 0-45.511-20.48-45.511-45.511 0-12.516 4.551-23.893 13.653-31.858l864.711-819.2c7.964-9.102 19.342-13.653 31.858-13.653s23.893 4.551 31.858 13.653l864.711 819.2c7.964 7.964 13.653 19.342 13.653 31.858 0 25.031-20.48 45.511-45.511 45.511z" />
<glyph unicode="&#xe908;" d="M1024 448c0-282.77-229.23-512-512-512s-512 229.23-512 512c0 282.77 229.23 512 512 512s512-229.23 512-512z" />
<glyph unicode="&#xe909;" d="M639.744 447.744h-73.216v-260.864h-108.544v260.864h-51.456v92.16h51.456v59.648c0 42.752 20.224 109.312 109.312 109.312l80.384-0.256v-89.344h-58.368c-9.472 0-23.040-4.864-23.040-25.088v-54.272h82.688l-9.216-92.16z" />
<glyph unicode="&#xe90a;" d="M1024 448c0-282.77-229.23-512-512-512s-512 229.23-512 512c0 282.77 229.23 512 512 512s512-229.23 512-512z" />
<glyph unicode="&#xe90b;" d="M735.232 478.464c-3.84 0-7.424 0-11.264 0 0 0.768 0 1.536 0 2.304 0 3.072 0 5.376 0 7.936 0 14.336 0.256 28.928-0.256 43.264 0 2.304-2.56 6.656-3.84 6.656-13.056 0.512-26.368 0.256-40.192 0.256 0-17.408 0-33.792 0-50.432 0-3.328 0-6.656 0-9.984-20.224 0-39.68 0-60.416 0 0-4.608 0-7.68 0-10.496 0.512-11.008 1.024-21.76 1.536-32.768 10.752-0.256 21.248-0.768 32-1.024 8.96-0.256 17.92 0 27.648 0 0-20.736 0-40.192 0-59.392 14.848 0 28.672 0 43.52 0 0 19.712 0 39.168 0 59.648 20.48 0 39.936 0 59.648 0 0 11.52 0 22.272 0 33.28 0 3.584 0 7.168 0 10.752-16.384 0-32.256 0-48.384 0z" />
<glyph unicode="&#xe90c;" d="M563.968 483.584c-37.632-0.512-75.264-0.256-112.896-0.256-10.752 0-21.504 0.256-32.256-0.256-2.048 0-5.632-2.56-5.632-3.84-0.512-21.76-0.256-43.264-0.256-66.304 30.976 0 61.184 0 92.16 0-1.28-4.608-2.048-7.68-3.072-10.752-14.080-41.984-57.344-62.72-103.936-55.040-57.6 9.472-93.44 62.976-83.2 120.576 1.536 8.192 4.096 15.872 7.424 23.296 18.944 41.984 66.304 67.328 112.896 57.088 16.64-3.584 30.976-11.776 43.264-22.528 16.64 16.896 33.024 33.28 50.432 50.944-1.024 0.768-2.816 2.048-4.352 3.328-40.704 34.304-87.552 47.104-139.776 38.4-75.264-12.288-129.28-71.68-141.568-140.8-5.12-29.696-2.816-60.928 8.96-91.392 28.672-73.472 102.656-118.272 181.504-109.568 38.656 4.352 72.96 18.176 99.84 46.848 39.68 42.24 49.92 93.44 43.52 149.504-0.512 9.216-4.352 11.008-13.056 10.752z" />
<glyph unicode="&#xe90d;" d="M1024 448c0-282.77-229.23-512-512-512s-512 229.23-512 512c0 282.77 229.23 512 512 512s512-229.23 512-512z" />
<glyph unicode="&#xe90e;" d="M504.32 262.912c5.888 5.888 8.96 7.168 15.616 0.512 22.528-23.552 46.080-46.592 69.376-69.632 6.144-6.144 12.8-10.496 21.504-11.008 13.824-1.024 27.648 7.936 34.048 21.248 5.632 12.288 3.584 25.344-6.912 35.84-30.464 30.72-61.184 61.44-91.904 92.16-0.256 0.256-0.256 0.512-0.512 0.512-2.816 2.816-1.024 7.68 2.816 8.192 19.456 2.816 38.912 6.656 56.576 13.568 22.016 8.448 41.728 20.736 58.112 37.632 10.752 11.008 10.752 24.832 2.048 38.912-7.68 12.544-20.736 17.664-35.072 14.080-7.168-1.792-13.568-5.632-19.456-9.984 0 0-0.256 0-0.256-0.256-59.392-39.936-140.8-38.656-200.192 2.048-2.816 2.048-5.888 3.84-9.216 5.376-16.384 7.68-32.256 4.096-41.728-9.472-11.008-15.872-9.728-30.976 4.352-44.544 3.584-3.584 7.68-6.4 11.52-9.472 29.184-23.040 63.232-33.28 100.608-38.144 4.096-0.512 5.888-5.376 2.816-8.448 0 0 0 0 0 0-30.208-30.208-60.416-60.672-90.624-90.88-6.144-6.144-10.752-13.312-11.264-22.272-0.768-13.568 7.68-26.88 20.736-33.28 12.288-5.888 25.088-4.096 35.84 6.4 24.32 23.552 47.872 47.104 71.168 70.912z" />
<glyph unicode="&#xe90f;" d="M377.6 579.584c-0.512-73.728 59.904-134.656 133.376-134.912 74.24-0.256 134.912 59.392 135.424 132.864 0.256 75.264-59.392 135.936-133.632 136.192-74.496 0.256-134.656-59.648-135.168-134.144z" />
<glyph unicode="&#xe910;" d="M440.064 577.024c-0.256-39.424 32-71.936 71.424-72.192 39.68-0.256 72.192 31.744 72.448 70.912 0.256 40.192-31.744 72.704-71.424 72.96-39.936 0-72.192-32-72.448-71.68z" />
<glyph unicode="&#xe911;" d="M1024 448c0-282.77-229.23-512-512-512s-512 229.23-512 512c0 282.77 229.23 512 512 512s512-229.23 512-512z" />
<glyph unicode="&#xe912;" d="M725.248 615.936c-1.024-11.264-4.096-23.040-6.656-35.072-20.992-99.328-41.984-198.656-63.232-298.24-1.28-5.632-2.56-11.52-5.632-16.64-5.12-8.448-12.288-11.52-21.76-9.216-5.888 1.28-11.264 4.096-16.128 7.936-31.744 23.552-63.744 47.104-95.488 70.656-4.096 3.072-6.4 2.56-9.728-0.768-15.616-15.616-31.488-30.72-47.36-46.336-5.888-5.888-12.544-9.472-21.248-9.216-6.144 0.256-9.728 2.816-11.52 8.704-9.728 30.72-19.712 61.184-29.696 91.904-3.328 10.496-6.912 20.736-9.984 31.232-1.024 3.84-3.072 5.632-6.912 6.912-31.232 9.472-62.208 19.456-93.184 28.928-4.096 1.28-8.192 2.56-11.776 4.864-8.96 5.632-9.472 13.056-1.792 20.224 5.376 4.864 11.776 7.68 18.176 10.24 42.496 16.384 84.736 32.768 127.232 49.152 91.648 35.328 183.040 70.656 274.688 105.728 0.768 0.256 1.536 0.512 2.048 0.768 16.64 6.656 29.696-2.56 29.952-21.76zM438.016 308.48c1.792 0.768 1.536 1.792 1.536 2.816 2.048 22.272 4.352 44.544 6.144 67.072 0.512 5.632 2.048 9.728 6.4 13.568 59.904 53.504 119.296 107.264 178.688 161.024 3.84 3.328 7.68 6.656 11.264 10.24 1.536 1.536 3.584 3.072 2.304 5.376-1.28 2.56-3.84 2.304-6.144 2.048-4.608-0.512-8.448-2.816-12.288-5.12-73.472-46.336-146.944-92.672-220.416-138.752-4.096-2.56-4.864-5.12-3.328-9.472 9.216-27.136 17.92-54.528 26.88-81.664 3.072-8.96 6.144-17.92 8.96-27.136z" />
<glyph unicode="&#xe913;" d="M1024 448c0-282.77-229.23-512-512-512s-512 229.23-512 512c0 282.77 229.23 512 512 512s512-229.23 512-512z" />
<glyph unicode="&#xe914;" d="M793.6 600.064c-19.2-8.448-39.936-14.080-61.696-16.64 22.272 13.056 39.168 33.792 47.36 58.624-20.736-12.032-43.776-20.992-68.352-25.6-19.456 20.48-47.36 33.28-78.336 33.28-59.392 0-107.264-47.36-107.264-105.728 0-8.192 1.024-16.384 2.816-24.064-89.344 4.352-168.448 46.592-221.44 110.592-9.216-15.616-14.592-33.792-14.592-53.248 0-36.608 18.944-69.12 47.872-88.064-17.664 0.512-34.048 5.376-48.64 13.312 0-0.512 0-0.768 0-1.28 0-13.568 2.56-26.368 7.424-38.4 13.056-33.28 42.752-58.112 78.848-65.28-8.96-2.304-18.432-3.584-28.416-3.584-6.912 0-13.568 0.768-20.224 2.048 13.824-41.984 53.248-72.704 100.352-73.472-36.864-28.416-82.944-45.312-133.376-45.312-8.704 0-17.152 0.512-25.6 1.536 47.616-29.952 103.936-47.616 164.608-47.616 167.936 0 271.104 116.224 298.24 237.056 4.864 21.248 7.424 42.752 7.424 63.744 0 4.608 0 9.216-0.256 13.568 20.736 14.592 38.912 33.28 53.248 54.528z" />
<glyph unicode="&#xe915;" d="M1024 448c0-282.77-229.23-512-512-512s-512 229.23-512 512c0 282.77 229.23 512 512 512s512-229.23 512-512z" />
<glyph unicode="&#xe916;" d="M526.080 645.376c112.896-17.152 164.864-69.632 179.2-180.992 0-0.768 0.256-1.792 0.256-2.56 0.512-10.24-1.536-23.296 12.288-23.552 12.032-0.256 12.544 8.704 12.288 17.408 0 2.816-0.256 5.376-0.256 7.936 1.28 104.96-92.16 202.24-200.448 205.824-8.192-1.28-25.088 5.632-26.112-12.544-0.768-12.288 13.568-10.24 22.784-11.52z" />
<glyph unicode="&#xe917;" d="M548.352 614.656c-10.752 1.28-25.088 6.4-27.648-8.448-2.56-15.616 13.312-13.824 23.552-16.128 69.632-15.36 93.952-40.192 105.472-108.032 0.512-2.816 0.512-6.144 0.768-9.472 0.768-7.936 2.56-15.104 14.592-13.312 6.144 1.024 8.192 4.608 8.96 8.96 0.512 4.608-0.256 9.728 0.256 13.824 0.512 65.28-56.32 124.416-125.952 132.608z" />
<glyph unicode="&#xe918;" d="M554.752 561.408c-7.424 0-14.592-0.768-17.152-8.448-4.096-11.264 4.352-14.080 13.056-15.36 28.672-4.608 43.52-20.992 46.592-48.896 0.256-3.584 1.792-6.912 3.84-9.216 2.304-2.56 5.376-4.096 9.472-3.84 2.304 0.256 4.096 1.024 5.632 2.048 4.864 3.328 5.632 10.24 5.376 16.896 0.256 31.488-36.096 67.584-66.816 66.816z" />
<glyph unicode="&#xe919;" d="M699.392 341.76c-14.080 11.008-29.184 20.992-44.032 31.232-29.44 20.48-56.576 22.016-78.592-10.752-12.288-18.432-29.696-19.2-47.872-11.008-49.92 22.272-88.576 56.32-111.104 106.24-3.584 7.936-5.888 15.36-6.144 22.528-0.768 13.056 4.608 24.832 19.712 34.816 12.288 8.192 24.832 17.92 23.808 36.096-1.28 23.552-59.392 101.888-82.432 110.336-9.472 3.328-18.944 3.328-28.672 0-53.76-17.664-76.032-61.184-54.784-112.64 11.776-28.416 25.344-55.552 40.448-80.896 66.304-110.848 164.096-191.488 289.536-244.48 8.704-3.584 18.688-5.12 23.552-6.656 35.072-0.256 76.288 32.768 88.32 65.792 11.52 31.744-12.8 44.288-31.744 59.392z" />
<glyph unicode="&#xe91a;" d="M1024 448c0-282.77-229.23-512-512-512s-512 229.23-512 512c0 282.77 229.23 512 512 512s512-229.23 512-512z" />
<glyph unicode="&#xe91b;" d="M756.224 578.816c-6.656 5.632-32 5.376-57.088 5.12-25.6-0.256-51.2-0.256-57.088-2.56-5.376-2.048-17.664-31.744-33.792-62.208-17.92-34.56-40.448-67.584-54.528-67.328-18.176 0.256-14.080 57.088-13.056 98.56 0.768 27.648-3.84 36.096-7.68 38.912-9.728 6.656-36.352 13.056-36.352 13.056s-79.36 6.144-90.624-28.416c15.104-2.048 41.216 2.816 31.232-103.68-0.512-5.12-12.032-49.152-49.152 10.24-9.216 14.592-44.8 103.424-57.088 103.68-41.216 1.024-81.408 2.816-96-5.12-13.056-7.424 17.664-68.608 69.888-150.528 42.752-66.816 87.808-119.040 165.888-132.352 14.592-1.536 52.992-3.328 64.768 2.56 8.192 4.096-1.792 61.952 25.856 67.328 12.544 2.304 59.648-60.16 77.824-67.328 11.008-4.352 35.072-5.888 59.648-5.12 26.624 0.768 56.576-2.304 59.648 15.616 6.4 39.936-80.384 91.904-82.944 116.736-1.792 17.664 31.744 50.432 49.152 75.264 21.76 29.952 44.8 66.304 31.488 77.568z" />
<glyph unicode="&#xe91c;" d="M1024 448c0-282.77-229.23-512-512-512s-512 229.23-512 512c0 282.77 229.23 512 512 512s512-229.23 512-512z" />
<glyph unicode="&#xe91d;" d="M755.456 460.288c-3.328 128.256-109.056 231.168-239.104 231.168-128.512 0-233.472-100.608-238.848-226.816-0.256-3.584-0.256-6.912-0.256-10.496 0-44.8 12.544-86.784 34.304-122.624l-43.264-127.232 132.352 41.984c34.304-18.688 73.728-29.44 115.712-29.44 132.096 0 239.104 106.24 239.104 237.312 0.256 2.048 0 4.096 0 6.144zM516.352 254.72c-40.96 0-78.848 12.032-110.592 33.024l-77.312-24.576 25.088 73.984c-24.064 32.768-38.4 73.216-38.4 116.992 0 6.656 0.256 13.056 1.024 19.456 9.728 100.864 95.744 180.224 200.192 180.224 105.472 0 192.256-81.152 200.448-183.808 0.512-5.12 0.768-10.24 0.768-15.616 0-110.080-90.368-199.68-201.216-199.68z" />
<glyph unicode="&#xe91e;" d="M625.92 406.528c-5.888 2.816-34.816 16.896-40.192 18.944s-9.216 2.816-13.312-2.816c-3.84-5.888-15.104-18.944-18.688-22.784-3.328-3.84-6.912-4.352-12.8-1.536s-24.832 8.96-47.104 28.928c-17.408 15.36-29.184 34.56-32.512 40.192-3.328 5.888-0.256 8.96 2.56 11.776 2.56 2.56 5.888 6.912 8.704 10.24 0.768 1.024 1.536 1.792 2.048 2.816 1.536 2.048 2.304 4.096 3.84 6.912 2.048 3.84 1.024 7.168-0.512 10.24-1.536 2.816-13.312 31.488-18.176 43.264s-9.728 9.728-13.312 9.728c-3.328 0-7.424 0.512-11.264 0.512s-10.24-1.536-15.616-7.168c-5.376-5.888-20.48-19.968-20.48-48.384 0-6.656 1.28-13.568 3.072-19.712 5.888-20.48 18.688-37.376 20.992-40.448 2.816-3.84 40.448-64.512 100.096-87.808s59.648-15.616 70.4-14.592c10.752 1.024 34.56 14.080 39.68 27.648 4.864 13.568 4.864 25.344 3.328 27.648-1.024 1.792-4.864 3.328-10.752 6.4z" />
</font>
</defs>
</svg>
